<?xml version="1.0" encoding="utf-8"?>
<!-- Generator: Adobe Illustrator 26.0.3, SVG Export Plug-In . SVG Version: 6.00 Build 0)  -->
<svg version="1.1" id="_Layer_" xmlns="http://www.w3.org/2000/svg" xmlns:xlink="http://www.w3.org/1999/xlink" x="0px" y="0px"
	 viewBox="0 0 1520 1282" style="enable-background:new 0 0 1520 1282;" xml:space="preserve">
<style type="text/css">
	.st0{fill:#65A8AF;}
	.st1{fill:#BCECF7;}
	.st2{fill:#F37B6D;}
	.st3{fill:#1C3A3E;}
	.st4{fill:#FCBDB6;}
	.st5{fill:#F9A6A0;}
	.st6{fill:#F3796A;}
	.st7{fill:#DCF6F9;}
	.st8{fill:#24555E;}
	.st9{fill:#FF7B69;}
</style>
<path class="st0" d="M1520,240.4v551.9c-13.4,31.7-28.2,54.9-44.3,64.1c-86.3,49.6-331.7,131.9-450.4,247.6
	c-52.1,50.9-164.7,107.2-274.5,154.3c-8.7-0.3-17.6-0.5-26.8-0.7c-55-1.1-119.3-0.1-185.2,1.8c-16,0.4-32,0.9-48.1,1.5
	c-10.6,0.3-21.2,0.7-31.8,1.1c-16.8,0.6-33.4,1.2-49.8,1.8c-13.2-20.9-27.7-44.2-42.5-69C309.3,1099,210.8,891.4,200,816.9
	S51.7,522.2,67.9,472.5c16.2-49.8,368.6-166.4,442.8-271.2C597.9,78.4,838.7,28.9,892.5,5.4l6.8-0.3l0,0c0.4,0,0.7,0,1.1-0.1
	c153.9-6.8,316.3-7.8,421.4,3.6c52,5.6,100.2,29.7,135.9,67.8c17.6,18.8,31.9,40.5,42.1,64.1c4.3,9.9,8,20.1,10.9,30.5
	C1516.9,193.7,1520.1,217,1520,240.4z"/>
<path class="st1" d="M623.5,1115.8c-3,9.1-6.7,10.8-10.3,9.7s-5.6-4.8-2.6-13.9c5.4-16.5,14.4-22.4,14.4-22.4
	S628.9,1099,623.5,1115.8z"/>
<path class="st1" d="M664.2,1162.3c0.2,9.5-2.8,12.4-6.6,12.5s-6.8-2.7-7-12.3c-0.3-17.4,6.4-25.9,6.4-25.9
	S663.9,1144.7,664.2,1162.3z"/>
<path class="st1" d="M676.3,1213.3l-1.3,1.4c-22-11.3-45.1-20.2-68.9-26.6l-1.9-0.5c-12.7-3.3-25.6-6-38.6-8
	c-2.9-0.5-5.9-0.9-8.9-1.3l0.2-1.8c3,0.4,5.9,0.8,8.8,1.2c24.8,3.8,49.1,10,72.6,18.8l1.9,0.7
	C652.5,1201.9,664.5,1207.3,676.3,1213.3z"/>
<path class="st1" d="M640.3,1197.7l-1.8,0.3c-10.2-64.8-70.6-100.8-71.2-101.2l0.9-1.6C568.8,1095.6,630,1132.1,640.3,1197.7z"/>
<path class="st1" d="M600.5,1193.8c-8.6,7.5-19.1,12.5-30.4,14.5l-0.2-1.8c0.2,0,21.3-3,35.2-20.1l1.4,1.1
	C604.6,1189.8,602.6,1191.9,600.5,1193.8z"/>
<path class="st1" d="M549,1171.6c12.9,0.1,16.7,3.2,16.6,6.9s-3.9,6.7-16.8,6.6c-23.4-0.2-34.7-7.1-34.7-7.1
	S525.3,1171.4,549,1171.6z"/>
<path class="st1" d="M569.9,1200.8c12.3-3.8,16.8-2,17.9,1.6s-1.7,7.6-14,11.4c-22.4,6.9-35.2,3.7-35.2,3.7
	S547.2,1207.8,569.9,1200.8z"/>
<path class="st1" d="M595.2,1160.1c7.8,5.5,8.4,9.6,6.2,12.7s-6.2,3.9-14-1.6c-14.2-10-17.1-20.4-17.1-20.4
	S580.9,1149.9,595.2,1160.1z"/>
<path class="st1" d="M566.2,1087.3c10.5,7.4,11.9,12,9.8,15.1s-7,3.4-17.6-4c-19.2-13.4-24.6-25.5-24.6-25.5
	S546.7,1073.7,566.2,1087.3z"/>
<path class="st1" d="M1320.1,659.7c-1.9,9.4-5.4,11.5-9.1,10.8s-6.1-4.1-4.2-13.5c3.4-17,11.7-24,11.7-24S1323.6,642.4,1320.1,659.7
	z"/>
<path class="st1" d="M1366,701c1.3,9.5-1.4,12.7-5.1,13.2s-7.1-1.9-8.4-11.4c-2.3-17.2,3.3-26.4,3.3-26.4S1363.7,683.6,1366,701z"/>
<path class="st1" d="M1155,665.5c-9.2-2.7-11-6.4-10-10s4.6-5.7,13.8-3c16.7,4.9,22.9,13.7,22.9,13.7S1172,670.5,1155,665.5z"/>
<path class="st1" d="M1432,585.2c7-6.5,11.1-6.2,13.7-3.5s2.6,6.9-4.4,13.4c-12.7,11.9-23.4,12.7-23.4,12.7S1419.2,597.2,1432,585.2
	z"/>
<path class="st1" d="M1295.8,863.3c-9.1-2.8-10.9-6.6-9.8-10.2s4.7-5.6,13.8-2.8c16.6,5.2,22.6,14.1,22.6,14.1
	S1312.7,868.6,1295.8,863.3z"/>
<path class="st1" d="M1336.1,799.2c7.1-6.3,11.3-6,13.8-3.2s2.4,7-4.8,13.3c-13,11.5-23.8,12-23.8,12S1322.9,810.9,1336.1,799.2z"/>
<path class="st1" d="M1384,750.3l-1.1,1.5c-23.2-8.6-47.2-14.7-71.6-18.2l-2-0.3c-13-1.8-26.1-3-39.3-3.4c-3-0.1-6-0.2-9-0.2v-1.8
	c3,0,5.9,0.1,8.9,0.2c25.1,0.8,50,4.2,74.4,10.1l2,0.5C1359.1,741.8,1371.7,745.7,1384,750.3z"/>
<path class="st1" d="M1346.5,739l-1.7,0.5c-17.8-63.1-82-91.8-82.6-92l0.7-1.7C1263.5,646.1,1328.5,675.1,1346.5,739z"/>
<path class="st1" d="M1306.5,739.9c-7.7,8.4-17.5,14.6-28.4,18l-0.4-1.8c0.2,0,20.8-5.5,32.6-24.1l1.5,1
	C1310.2,735.5,1308.4,737.7,1306.5,739.9z"/>
<path class="st1" d="M1252.8,723.9c12.8-1.4,16.9,1.2,17.3,4.9s-3.1,7.2-15.9,8.6c-23.3,2.6-35.3-2.9-35.3-2.9
	S1229.1,726.5,1252.8,723.9z"/>
<path class="st1" d="M1276.9,750.4c11.8-5.2,16.5-4,18-0.6s-0.8,7.7-12.5,12.9c-21.4,9.5-34.5,7.8-34.5,7.8S1255.2,760,1276.9,750.4
	z"/>
<path class="st1" d="M1297.3,707c8.4,4.6,9.4,8.6,7.6,11.8s-5.7,4.6-14.1,0c-15.3-8.3-19.4-18.2-19.4-18.2S1281.8,698.6,1297.3,707z
	"/>
<path class="st1" d="M1259.9,638.1c11.3,6.1,13.3,10.6,11.5,13.8s-6.6,4.2-17.9-1.9c-20.7-11.1-27.4-22.4-27.4-22.4
	S1238.9,626.9,1259.9,638.1z"/>
<path class="st1" d="M1072.3,226.1l-1.4-1.2c10.1-22.6,17.7-46.1,22.8-70.3l0.4-2c2.7-12.9,4.6-25.9,5.9-39c0.3-3,0.6-6,0.8-9
	l1.8,0.1c-0.2,3-0.5,5.9-0.8,8.8c-2.4,25-7.4,49.6-14.9,73.5c-0.2,0.7-0.4,1.3-0.6,2C1082.4,201.7,1077.7,214,1072.3,226.1z"/>
<path class="st1" d="M1085.9,189.3l-0.4-1.8c64.1-13.6,96.9-75.9,97.2-76.5l1.6,0.8C1184,112.5,1150.9,175.5,1085.9,189.3z"/>
<path class="st1" d="M1087.7,149.4c-7.9-8.2-13.5-18.4-16.1-29.6l1.8-0.3c0,0.2,4.2,21.1,21.9,34l-1.1,1.5
	C1091.9,153.3,1089.7,151.4,1087.7,149.4z"/>
<path class="st1" d="M1107.1,96.8c0.6,12.9-2.3,16.8-6,17s-6.9-3.5-7.5-16.4c-1.1-23.4,5.2-35,5.2-35S1106.1,73.1,1107.1,96.8z"/>
<path class="st1" d="M1079.1,119.2c4.4,12.1,2.9,16.7-0.6,18s-7.7-1.3-12.1-13.3c-8.1-22-5.6-35-5.6-35S1070.9,96.9,1079.1,119.2z"
	/>
<path class="st1" d="M1121.1,142.3c-5.1,8.1-9.2,8.9-12.3,6.9s-4.2-6,0.9-14.1c9.2-14.7,19.5-18.2,19.5-18.2
	S1130.5,127.4,1121.1,142.3z"/>
<path class="st1" d="M1192.2,109.5c-6.8,10.9-11.4,12.6-14.6,10.6s-3.7-6.8,3.1-17.8c12.4-19.9,24.1-25.9,24.1-25.9
	S1204.8,89.3,1192.2,109.5z"/>
<path class="st2" d="M1520,240.4v287.8c-134.7,20-388.7,55.8-388.7,55.8s0-0.1-0.1-0.2l-12-37.7c-13.8-43.4-36.8-115.5-54.1-169.4
	c-13-40.5-22.9-70.8-23.4-70.8c0,0,244.7-179.7,404.9-240.4c3.8,3.5,7.5,7.2,11,11c17.6,18.8,31.9,40.5,42.1,64.1
	c4.3,9.9,7.9,20.1,10.9,30.5C1516.9,193.7,1520,217,1520,240.4z"/>
<path class="st3" d="M1122.3,580.2c-29.1-27.4-110.5-277-80.6-274.3C1114.6,312.4,1166.5,621.8,1122.3,580.2z"/>
<path class="st4" d="M1113.9,560.6c-37.6,18.1-136.9,91.2-160.5,107.2c-25.6,17.4-155.7,26.4-184.5,13.2
	c-34.3-15.8-136-75.7-131.8-89.9c4.1-13.6,22.8-24.2,63.8-5.7c17.1,7.7,42.4,18.3,49,19.8c38,9.1,72.1,0,97.6-11.5
	c27.7-12.5,80.6-76.5,97.8-117.9c18.6-44.8-5.4-89.2,51.5-95c22.4-2.3,54.6-6.5,69.6-3.8C1092.1,381.4,1134.6,550.7,1113.9,560.6z"
	/>
<path class="st4" d="M1026,496.1c0,0-68.4,77.5-78.7,84s-84.3,43.8-92.1,42.6s-15.5-36.4,5.5-55.4s53.9-49.6,61.5-74.2
	s26.3-95.1,55.9-107.9S1026,496.1,1026,496.1z"/>
<path class="st5" d="M855.5,623.9c-0.2,0-0.3,0-0.5,0c-2.9-0.5-5.5-4.1-7.2-9.9c-4.2-13.9-2.1-34.8,12.1-47.7
	c17.3-15.6,53.3-48.2,61.1-73.7c0.2-0.7,0.9-1.1,1.5-0.9c0,0,0,0,0.1,0c0.7,0.2,1,0.9,0.8,1.5c0,0,0,0,0,0
	c-7.1,23-35.2,50.7-61.8,74.8c-15.5,14-14.2,35.6-11.4,45.1c1.6,5.3,3.8,7.9,5.2,8.2c6.9,1.1,79.9-35.3,91.2-42.4
	c10.1-6.3,77.8-83,78.5-83.8c0.5-0.5,1.2-0.6,1.8-0.1c0.5,0.5,0.6,1.2,0.1,1.8c-2.8,3.2-68.6,77.7-79,84.2
	C939.4,586.4,866.3,623.9,855.5,623.9z"/>
<path class="st5" d="M858.6,606.6c-0.7,0-1.3-0.6-1.3-1.2c0-0.4,0.2-0.7,0.5-1c3.7-3,22.4-18,27-18.6c2.3-0.3,5.2,1.7,9.1,5.9
	c1.7,1.9,3.3,3.9,4.8,6c0.3,0.6,0,1.4-0.6,1.7c-0.5,0.2-1,0.1-1.4-0.2c-5.4-7.8-10-11.1-11.5-10.9c-2.9,0.3-17.3,11.2-25.7,18
	C859.2,606.5,858.9,606.6,858.6,606.6z"/>
<path class="st5" d="M672.2,621.1c-0.7,0-1.2-0.5-1.3-1.2c0-0.3,0.1-0.6,0.3-0.8c0.1-0.1,1.8-2.8,0.1-6.8
	c-1.3-3.2-16.2-12.4-25.3-17.5c-0.6-0.4-0.8-1.1-0.4-1.7c0.3-0.6,1.1-0.8,1.6-0.5c2.5,1.4,24.3,13.7,26.4,18.7
	c2.2,5.3-0.3,9-0.4,9.2C673,620.9,672.6,621.1,672.2,621.1z"/>
<path class="st6" d="M1095.7,0c-84.9,102.5-172.1,190.6-172.1,190.6c0.1-0.5-28.4-14.7-66.6-33.5C806.3,132,738.4,98.6,697.4,78.6
	l-35.5-17.4l-0.2-0.1c0,0,4.8-16,12.6-41.5c37.2-3.2,78.1-6.3,121-9c10.4-0.7,21-1.3,31.7-1.9l0,0l1.8-0.1c21-1.2,42.3-2.3,63.8-3.2
	c2.2-0.1,4.5-0.2,6.8-0.3l0,0c0.4,0,0.8,0,1.1-0.1C965.6,2.2,1032.4,0.3,1095.7,0z"/>
<path class="st3" d="M664.1,70.5c22.8,32.8,257.7,150.1,259.5,120.1C927.9,117.7,629.4,20.7,664.1,70.5z"/>
<path class="st4" d="M682.3,81.8c-23.4,34.6-110.3,122-129.7,142.9c-21,22.8-49,150.1-40.2,180.5C523,441.5,567.3,551,582,548.8
	c14.1-2.1,27.3-19,15-62.3c-5.1-18-11.8-44.7-12.4-51.3c-3.4-39,10.6-71.3,25.7-94.8c16.5-25.6,87.5-68.5,131-79.4
	c47-11.8,87.4,18.5,101.6-36.9c5.6-21.8,14.5-53.1,14-68.3C856.3,129.8,695.1,62.8,682.3,81.8z"/>
<path class="st4" d="M733.2,178.2c0,0-86.7,56.3-94.7,65.5s-55.7,76.9-55.7,84.8s33.8,20.7,55.6,2.7s57-46,82.5-49.9
	s97.9-12,115-39.4S733.2,178.2,733.2,178.2z"/>
<path class="st5" d="M611.3,341.6c-7.2,0-14.4-1.5-21-4.5c-5.5-2.6-8.7-5.7-8.7-8.6c0-3.7,8.4-18,25-42.6c13.3-19.7,27-38.5,30.9-43
	c8-9.3,91.4-63.5,94.9-65.8c0.6-0.4,1.4-0.2,1.7,0.4s0.2,1.4-0.4,1.7c-0.9,0.6-86.7,56.3-94.4,65.3c-8.7,10.2-55.4,76.9-55.4,84
	c0,1.5,2.3,4,7.3,6.4c9,4.2,30.2,8.6,46.3-4.6c27.7-22.8,59.2-46.5,83.1-50.2c0.7-0.1,1.3,0.4,1.4,1.1c0.1,0.7-0.4,1.3-1,1.4
	c-26.4,4-63.9,34.8-81.9,49.6C631,338.9,620.9,341.6,611.3,341.6z"/>
<path class="st5" d="M614.3,328.5c-0.3,0-0.5-0.1-0.7-0.2c-0.6-0.4-0.7-1.2-0.3-1.8c6.3-8.7,16.4-23.7,16.6-26.6
	c0.1-1.5-3.4-5.9-11.5-10.9c-0.6-0.4-0.7-1.2-0.3-1.7c0.4-0.5,1.1-0.7,1.6-0.4c2.2,1.4,4.3,2.9,6.3,4.5c4.4,3.6,6.5,6.5,6.4,8.7
	c-0.3,4.5-14.3,24-17.1,27.9C615.1,328.3,614.7,328.5,614.3,328.5z"/>
<path class="st5" d="M580.6,540.3c-0.5,0-1-0.3-1.2-0.8c-3.7-9.7-10.7-25.8-13.6-27.6c-3.8-2.3-6.7-0.9-6.7-0.9
	c-0.6,0.3-1.4,0.1-1.7-0.6c-0.3-0.6-0.1-1.4,0.6-1.7c0,0,0,0,0,0c0.2-0.1,4.2-2,9.1,1c4.7,2.8,13.6,26.2,14.6,28.9
	c0.2,0.6-0.1,1.3-0.7,1.6c0,0,0,0,0,0C580.9,540.3,580.7,540.3,580.6,540.3z"/>
<path class="st7" d="M806.4,609.1c-93.6,17.2-169.2-16.3-210.5-125.5c-39.8-105,26.5-181.8,115.9-214.4
	C818,230.5,899,293.9,926.2,385.1S918,588.5,806.4,609.1z"/>
<path class="st8" d="M803.9,578.2c-76.8,22.9-159-25.5-182-102.4c-23.4-76.6,19.7-157.8,96.4-181.2c76.6-23.4,157.8,19.7,181.2,96.4
	c0.2,0.6,0.4,1.3,0.6,1.9C923,469.7,891.4,552.1,803.9,578.2z"/>
<path class="st3" d="M786,548.8c-58.7,17.5-130.8-14.9-149.6-74.6c-21.4-67.8,10.6-147.4,77.4-167.4s112.3-2.1,146.7,69
	C890.9,438.5,852.9,528.8,786,548.8z"/>
<path class="st8" d="M816.9,549.6c-8.4,2.5-19.9-3.4-22.4-11.8s2.2-13.6,10.7-19.8c7.1-5.2,17.3,2.3,19.8,10.7
	S825.3,547.1,816.9,549.6z"/>
<path class="st3" d="M809.8,547.8c-7.1-1.2-13.3-9.7-12.1-16.8s6.5-9.2,15-10.6c7.1-1.2,11.8,7.9,10.6,15S816.8,549,809.8,547.8z"/>
<path class="st8" d="M848.1,516.6c-6.6-1.4-12.1-9.5-10.7-16.1s6.4-8.3,14.4-9.4c6.6-0.9,10.8,7.8,9.4,14.4S854.6,517.9,848.1,516.6
	z"/>
<path class="st8" d="M838,518.3c-2.8-0.6-5.2-4.1-4.6-6.9s2.7-3.6,6.1-4c2.8-0.4,4.6,3.3,4,6.1S840.9,518.9,838,518.3z"/>
<path class="st8" d="M827.9,529.8c-4.3-0.9-8-6.3-7.1-10.6s4.2-5.5,9.5-6.2c4.4-0.6,7.1,5.2,6.2,9.5S832.3,530.7,827.9,529.8z"/>
<path class="st3" d="M846.1,511.6c-3.8-3-4.8-10.1-1.8-14s6.9-3.4,12.4-1.5c4.6,1.6,4.5,8.6,1.5,12.4S849.9,514.6,846.1,511.6z"/>
<path class="st8" d="M852.1,408.8c-9.3-2-17.2-13.5-15.2-22.8s9.1-11.8,20.4-13.3c9.4-1.2,15.3,11.1,13.3,20.4
	S861.5,410.7,852.1,408.8z"/>
<path class="st3" d="M849.3,401.6c-5.4-4.3-6.9-14.4-2.6-19.8s9.7-4.8,17.6-2.1c6.6,2.2,6.4,12.2,2.1,17.6S854.8,405.9,849.3,401.6z
	"/>
<path class="st8" d="M861.5,412.9c-2.6-4-1.3-10.9,2.7-13.5s7.4-1,11.9,2.5c3.8,2.9,1.5,9.3-2.5,11.9S864.1,416.9,861.5,412.9z"/>
<path class="st3" d="M863,409.4c-0.4-3.5,2.7-7.5,6.1-7.9s5.2,1.8,7,5.5c1.5,3.1-2,6.6-5.5,7S863.4,412.8,863,409.4z"/>
<path class="st8" d="M845.6,429.7c-2-3.2-1-8.6,2.2-10.7s5.8-0.8,9.4,2c3,2.3,1.2,7.4-2,9.4S847.7,432.9,845.6,429.7z"/>
<path class="st3" d="M846.8,426.9c-0.3-2.7,2.1-5.9,4.8-6.3s4.1,1.4,5.5,4.3c1.2,2.5-1.6,5.2-4.3,5.5S847.1,429.6,846.8,426.9z"/>
<path class="st3" d="M843.9,542.7c-5.3,1.6-12.6-2.2-14.1-7.5s1.4-8.6,6.8-12.5c4.5-3.3,10.9,1.4,12.5,6.8S849.3,541.1,843.9,542.7z
	"/>
<path class="st8" d="M836.3,538.6c-1.8,0.5-3.7-0.5-4.2-2.3c0,0,0,0,0,0c-0.5-1.8,0.3-4.2,2.1-4.8c2.1-0.4,4.2,0.7,5.1,2.7
	C839.9,536,838.1,538,836.3,538.6z"/>
<path class="st7" d="M879.9,562.7c0,0,65.7,70.3,81,61.4s31.3-37.7,30.9-50.6s-71.5-57.5-71.5-57.5L879.9,562.7z"/>
<path class="st3" d="M627.1,520.4c-0.2,0-0.4-0.1-0.5-0.2c-22.6-35.8-28.3-69.8-29.2-92c-0.9-24,3.7-39.8,3.7-40
	c0.1-0.3,0.4-0.5,0.7-0.4c0.3,0.1,0.5,0.4,0.4,0.7c-0.1,0.2-4.6,15.8-3.7,39.7c0.8,22,6.5,55.8,29,91.4c0.2,0.3,0.1,0.6-0.2,0.8
	c0,0,0,0,0,0C627.3,520.4,627.2,520.4,627.1,520.4z"/>
<path class="st3" d="M954.2,615.8c-8.6,0-24.1-12.8-29.4-20.1l0,0c-1.2-1.6-1.2-3.2-0.1-4.4c3.5-3.7,13.4-1.2,20.6,3.3
	c3.7,2.3,8.6,1.1,13.4-0.1c4.6-1.1,9-2.2,11.5,0.4c1.2,1.3,1.3,4.2,0.2,7.5c-1.8,5.5-6.6,12-14.8,13.4
	C955.1,615.7,954.6,615.8,954.2,615.8z M925.6,595c5.3,7.4,21.9,21,29.7,19.6s12.2-7.5,13.9-12.7c0.9-2.8,0.9-5.5,0-6.4
	c-2-2.1-6.1-1.1-10.4,0c-4.8,1.2-10.2,2.5-14.2,0c-9.3-5.8-17.1-5.7-19.2-3.5C924.4,593.1,925,594.3,925.6,595L925.6,595z"/>
<path class="st3" d="M886.2,569.9c-0.1,0-0.2,0-0.3-0.1c-0.2-0.2-0.3-0.5-0.1-0.8c0,0,0,0,0,0c0.3-0.3,27.2-36,34-53.2
	c0.1-0.3,0.4-0.4,0.7-0.3c0.3,0.1,0.4,0.4,0.3,0.7c0,0,0,0,0,0c-6.8,17.4-33.8,53.1-34.1,53.5C886.6,569.8,886.4,569.9,886.2,569.9z
	"/>
<path class="st3" d="M260,888.4c3.7-1.4,12.7,1.1,15.3,4.1c22.7,26.7,175.5,208.6,152.1,235.4c-1.8,2-4.6,1.6-8.5,1.7
	C347.8,1132.6,222,902.7,260,888.4z"/>
<path class="st0" d="M427.4,1127.9c0,0-12.9,17.3-34.3,44.6c-6.8,8.6-14.4,18.3-22.7,28.7c-13,16.2-27.7,34.2-43.6,53.3
	c-3.5,4.2-7.1,8.5-10.8,12.8c-41.4,1.5-79.2,2.6-110.9,3.1l-6.9,0.1l0,0C88.7,1271.6,0,1166.6,0,1038.6v-77.4
	c18.3-5.5,38.4-11.3,59-17.2c29.2-8.3,59.4-16.8,87.3-24.4c19.8-5.4,38.4-10.5,54.6-14.9c8.5-2.3,16.3-4.4,23.3-6.3
	c21.4-5.8,35-9.5,35.8-9.9c0.3,0-0.9,35.2,19.1,77.9c16.9,36.2,48.2,93.1,81.9,129.2c15.6,16.8,31.7,29.1,47.1,32.7l0.3,0.1
	c4.9,1.2,10,1.4,15,0.5C424.8,1128.6,426.1,1128.3,427.4,1127.9z"/>
<path class="st4" d="M418.5,745c0,0,41.7-111.4,54.8-114.9c25.4-6.8,5.4,49.7,5.4,49.7L418.5,745z"/>
<path class="st4" d="M275.4,893.6c30.7-28.3,50.5-49.8,71.3-69.5c51.2-48.4,164.7-123.9,220.9-97.5S663.3,849,639,864.5
	s-89.7-58-111.4-56.3s-59.8,109.8-46.5,118.5s101.2-46.9,119.3-12c0,0,10.2,19.6-39.4,49.6c-26.9,16.2-59.9,56.6-112.6,78.9
	c-20.7,8.8-50.3,22.2-65.4,24.1C357.1,1070.4,258.6,909.1,275.4,893.6z"/>
<path class="st4" d="M364.6,808.3c0,0,84.1-114.2,143.7-134s103.8-24.1,110,1.5S519.1,754,519.1,754L364.6,808.3z"/>
<path class="st4" d="M313.9,857.3C345.5,815,537,604.7,555.5,607.9c35.8,6.3-29.8,87.9-29.8,87.9L313.9,857.3z"/>
<path class="st4" d="M481.1,926.8c0,0,92.5-38.7,118.9-23.1s-33.7,57.1-98.6,106S427.6,939.4,481.1,926.8z"/>
<path class="st5" d="M473.5,749.7c-0.3,0-0.5-0.1-0.7-0.2c-0.6-0.4-0.7-1.2-0.3-1.7c0,0,0,0,0,0c13-18.8,28.5-30,46.2-33.1
	c26.9-4.8,48.8,10.4,49.7,11c0.5,0.5,0.5,1.3,0,1.8c-0.4,0.4-0.9,0.5-1.4,0.2c-0.2-0.2-22-15.2-47.9-10.6c-17,3-32,13.8-44.6,32.1
	C474.3,749.4,473.9,749.7,473.5,749.7z"/>
<path class="st5" d="M449.3,734.3c-0.7,0-1.2-0.5-1.3-1.2c0-0.3,0.1-0.6,0.3-0.8c0.2-0.3,21.5-30.7,37.7-45.7
	c6.9-6.4,19.6-12.5,37.7-18.3c13.4-4.3,25-6.8,25.2-6.8c0.7-0.1,1.3,0.4,1.4,1.1c0.1,0.6-0.3,1.2-0.9,1.4
	c-0.4,0.1-45.8,9.9-61.7,24.6c-16,14.8-37.1,45-37.3,45.3C450.1,734.1,449.7,734.3,449.3,734.3z"/>
<path class="st3" d="M1292.4,1069.5c0,0-274.7,161.7-218.5,182.9c65.1,24.6,227.4-118.8,226.1-180.6
	C1298.3,1070.6,1295.2,1069.9,1292.4,1069.5z"/>
<path class="st0" d="M1457.2,1200.7c-34.4,35.8-80.1,59.7-130,68.8l0,0l-1.9,0.3l0,0l-3.4,0.6c-34.4,5.5-69.1,9-103.9,10.4
	c-20.8,0.9-42.5,1.3-65.5,1.2h-1.9c-12.3-0.1-25-0.3-38.1-0.7c-11-0.3-22.4-0.7-34.1-1.2c-7-20.3-11-32.5-11.1-32.9
	c1.1,0.8,2.3,1.6,3.5,2.2c4.5,2.4,9.4,3.9,14.4,4.4c0.1,0,0.2,0,0.3,0c15.8,1.5,35-4.9,55.2-15.8c43.5-23.3,91.5-67.1,119.2-96
	c32.7-34,40.1-70.3,40.1-70.3l3.1,2.7c0.6,0.6,17.7,14.5,44.4,36.3l0,0l0.3,0.2c15.8,12.9,35,28.6,56.3,46l0.1,0.1l0.3,0.2
	C1421,1171,1438.8,1185.6,1457.2,1200.7z"/>
<path class="st4" d="M1224,921.5c0,0-28.3-152.6-39.7-160.2c-21.9-14.6-21.1,45.3-21.1,45.3L1224,921.5z"/>
<path class="st4" d="M1286.7,1074.5c-19.9-36.7-31.8-63.5-45.1-88.7c-32.8-62.3-109.8-153.5-167.7-175.9
	c-91.4-35.4-165.9-55.2-167.6-30.6c-2.9,42.7,137,77.2,169.1,133.2c15.1,26.4,21.2,123.2,5.8,127.1c-15.4,3.9-80.6-77-109-49.8
	c0,0-16,15.3,21.4,59.7c20.2,24,38.4,72.9,81.1,111c16.8,15,40.5,37.3,54.2,43.9C1152.4,1215.5,1297.7,1094.6,1286.7,1074.5z"/>
<path class="st4" d="M1229.9,965c0,0-42.8-135.2-92.8-173.2s-134.9-90.3-148.9-68.1s113,140.1,113,140.1L1229.9,965z"/>
<path class="st4" d="M1262,1027.8c-16.3-50.2-121.6-345.3-157.2-340.3c-36,5.2,8.7,119.2,8.7,119.2L1262,1027.8z"/>
<path class="st4" d="M1081.3,1039.5c0,0-75-66.4-105.1-60.2s13.5,64.9,59.1,132.2C1081,1178.8,1127.9,1068.8,1081.3,1039.5z"/>
<path class="st5" d="M1145.6,882.4c-0.5,0-1-0.4-1.2-0.9c-14.9-46.6-111.7-85.7-112.6-86.1c-0.6-0.3-0.9-1-0.7-1.6c0,0,0,0,0,0
	c0.3-0.6,1-0.9,1.6-0.7c0,0,0,0,0,0c17.6,7.4,34.7,15.9,51.1,25.6c35.3,21.1,56.5,41.9,63,62c0.2,0.7-0.1,1.4-0.8,1.6
	C1145.9,882.4,1145.7,882.5,1145.6,882.4z"/>
<path class="st5" d="M1177.3,858.3c-0.5,0-0.9-0.3-1.1-0.7c-0.1-0.3-13.7-26.5-24.1-45.7c-10.3-18.9-50.1-42.9-50.5-43.1
	c-0.6-0.3-0.8-1.1-0.4-1.7c0,0,0,0,0,0c0.4-0.6,1.1-0.8,1.7-0.4c0.1,0.1,10.3,6.2,21.6,14.6c15.3,11.3,25.3,21.3,29.8,29.5
	c10.4,19.3,24,45.5,24.1,45.8c0.3,0.6,0.1,1.4-0.5,1.7c0,0,0,0,0,0C1177.7,858.3,1177.5,858.3,1177.3,858.3z"/>
<path class="st7" d="M716.6,795.5c80.4-50.9,163-48,242.1,37.9c76.1,82.6,43.2,178.5-27.5,242.1c-84.1,75.6-182.9,46.9-242.1-27.5
	S620.8,856.2,716.6,795.5z"/>
<path class="st8" d="M730.5,823.2c62.7-49.9,157.1-35.6,207,27.1c49.6,63,38.7,154.2-24.3,203.8c-62.5,49.2-152.9,38.9-202.8-23
	C660.5,968.3,659.1,880.1,730.5,823.2z"/>
<path class="st3" d="M758.1,843.9c48-38.2,126.9-34.9,166.6,13.4c45.1,54.9,45.2,140.8-9.4,184.2s-103.4,43.8-161.8-9.3
	C701.9,985.2,703.5,887.3,758.1,843.9z"/>
<path class="st8" d="M729.1,854.6c6.9-5.5,19.7-4.2,25.2,2.6s3.1,13.4-2.5,22.3c-4.7,7.4-16.9,4.3-22.3-2.5S722.2,860.1,729.1,854.6
	z"/>
<path class="st3" d="M736.4,853.6c7-1.5,16,4,17.5,11s-2.6,10.9-9.9,15.4c-6.1,3.8-13.9-2.9-15.4-9.9S729.4,855.1,736.4,853.6z"/>
<path class="st8" d="M712.5,896.9c6.6-1.2,14.8,4.3,15.9,10.9s-2.8,10.1-9.8,14.1c-5.8,3.3-12.9-3.2-14.1-9.8
	S705.9,898.1,712.5,896.9z"/>
<path class="st8" d="M721.2,891.5c2.8-0.5,6.3,1.8,6.8,4.7s-1.2,4.3-4.2,6c-2.5,1.4-5.5-1.4-6-4.2S718.3,892,721.2,891.5z"/>
<path class="st8" d="M726.3,877.1c4.3-0.8,9.7,2.8,10.5,7.2s-1.9,6.7-6.5,9.3c-3.8,2.2-8.5-2.1-9.3-6.5S721.9,877.9,726.3,877.1z"/>
<path class="st3" d="M716.2,900.8c4.7,1.4,8.3,7.6,6.9,12.3s-5.1,5.7-11,6c-4.9,0.3-7.4-6.3-6-11S711.5,899.4,716.2,900.8z"/>
<path class="st8" d="M749,998.5c9.4-1.7,21,6.1,22.7,15.5s-4,14.4-14,20c-8.3,4.7-18.3-4.6-20-14S739.6,1000.1,749,998.5z"/>
<path class="st3" d="M754.3,1004c6.7,1.9,11.7,10.8,9.8,17.4s-7.2,8.1-15.6,8.6c-6.9,0.4-10.5-8.9-8.6-15.6S747.6,1002.1,754.3,1004
	z"/>
<path class="st8" d="M738.7,998.1c3.9,2.7,5.2,9.6,2.5,13.5s-6.5,3.7-12,2.1c-4.6-1.3-4.8-8.1-2.1-12S734.8,995.3,738.7,998.1z"/>
<path class="st3" d="M738.6,1001.9c1.7,3,0.3,8-2.7,9.6s-5.4,0.3-8.5-2.5c-2.6-2.3-0.6-6.8,2.5-8.5S737,998.8,738.6,1001.9z"/>
<path class="st8" d="M747.2,976.6c3.1,2.2,4.1,7.6,2,10.7s-5.1,2.9-9.5,1.7c-3.6-1-3.8-6.4-1.7-9.5S744.1,974.4,747.2,976.6z"/>
<path class="st3" d="M747.1,979.6c1.2,2.7,0.3,6-2.2,7.6c-2.4,1.3-4.3,0.2-6.7-2c-2-1.8-0.4-5.4,2-6.7S745.8,977.2,747.1,979.6z"/>
<path class="st3" d="M706.6,871.1c4.3-3.4,12.5-2.7,15.9,1.7s1.9,8.5-1.6,14.1c-2.9,4.7-10.7,2.7-14.1-1.6S702.3,874.6,706.6,871.1z
	"/>
<path class="st8" d="M715.2,872.1c1.5-1.2,3.6-0.9,4.8,0.5c1.2,1.5,1.3,4.1-0.2,5.2s-4.6,0.9-5.7-0.6S713.7,873.2,715.2,872.1z"/>
<path class="st7" d="M665.8,866c0,0-87.2-40.7-98-26.8s-15,46.7-9.8,58.5s87.8,26.7,87.8,26.7L665.8,866z"/>
<path class="st3" d="M988.9,928c-2.1,0-3.9-1.6-4.1-3.7c-0.1-0.7-1.8-16.2-11.2-37.3c-8.8-19.7-26.3-48.2-59.7-72.3
	c-1.9-1.3-2.3-3.9-0.9-5.8c0.6-0.9,1.6-1.5,2.7-1.7c1.1-0.2,2.2,0.1,3.1,0.7c35,25.3,53.3,55.2,62.5,75.9
	c10,22.5,11.7,38.9,11.8,39.6c0.2,2.3-1.4,4.3-3.7,4.5c0,0,0,0,0,0C989.2,928,989,928,988.9,928z M916.3,808.3c-0.2,0-0.3,0-0.5,0
	c-1.6,0.2-2.8,1.7-2.6,3.4c0.1,0.9,0.6,1.6,1.3,2.1c33.6,24.3,51.2,52.9,60.1,72.7c9.5,21.3,11.2,37,11.3,37.7
	c0.2,1.7,1.6,2.9,3.3,2.7c1.7-0.2,2.9-1.6,2.7-3.3c-0.1-0.7-1.7-16.9-11.7-39.2c-9.2-20.6-27.4-50.3-62.2-75.4
	C917.5,808.5,916.9,808.3,916.3,808.3L916.3,808.3z"/>
<path class="st3" d="M573.2,869.9c-1.9,0-3.5-1.2-4.2-2.9c-2.2-5.2,0.4-16.3,6.7-21.9c7.3-6.4,34.9,6.4,36,7c0,0,0.1,0.1,0.1,0.1
	c1.5,1.4,1.9,3,1.1,4.4c-1.8,3.2-9,5-18.1,2.4c-7.7-2.1-10.8,1.7-13.8,5.5c-2.1,2.6-4.1,5.1-7.4,5.4
	C573.5,869.9,573.4,869.9,573.2,869.9z M582.2,844.3c-2.6,0-4.5,0.5-5.7,1.5c-5.9,5.2-8.5,15.8-6.4,20.6c0.5,1.5,2,2.4,3.5,2.2
	c2.9-0.3,4.7-2.6,6.7-5c3.1-3.8,6.6-8.2,15-5.8c8.9,2.5,15.5,0.5,16.9-1.9c0.7-1.2-0.1-2.3-0.8-3c-4.9-2.2-9.8-4.2-14.9-5.8
	C590.5,845.3,585.7,844.3,582.2,844.3L582.2,844.3z"/>
<path class="st3" d="M645.8,924.9c-0.3,0-0.6-0.2-0.6-0.5v0c-0.2-18.7,11.6-61.9,11.7-62.4c0.1-0.3,0.4-0.5,0.7-0.4s0.5,0.4,0.4,0.7
	c-0.1,0.4-11.8,43.5-11.6,62.1C646.3,924.7,646.1,924.9,645.8,924.9C645.8,924.9,645.8,925,645.8,924.9L645.8,924.9z"/>
<path class="st8" d="M379.5,406c0,0,41.2-31,57.5-7.6s-7.3,90.8-56.7,99S318.4,380,379.5,406z"/>
<path class="st1" d="M396.3,381.2c0,0,25-10.1,26.7,1.9s-32,17.8-32,17.8s25.9,5.8,15.6,17s-26.5-8.7-26.5-8.7s6,14-7.2,16.3
	s-6.2-15-6.2-15s-11.7,17.3-18.3,6.6s-1.4-24.9,17.4-26.6c0,0-16.8-8.7-0.2-13.2S396.3,381.2,396.3,381.2z"/>
<path class="st1" d="M382.2,395.6c-0.2,0-0.4,0-0.7-0.1c-1.3-0.4-2-1.7-1.6-2.9c0,0,0,0,0,0c9.4-32.8,40-49.1,41.3-49.8
	c1.2-0.6,2.6-0.2,3.2,1c0.6,1.2,0.2,2.6-1,3.2l0,0c-0.3,0.2-30.1,16.1-38.9,46.9C384.1,394.9,383.2,395.6,382.2,395.6z"/>
<path class="st4" d="M385.4,449c0,0-4.9-18.2,3.3-16.6C398.4,434.2,385.4,449,385.4,449z"/>
<path class="st4" d="M417.2,428.6c0,0-4.9-18.2,3.3-16.6C430.2,413.8,417.2,428.6,417.2,428.6z"/>
<path class="st4" d="M406.6,463.6c0,0-4.9-18.2,3.3-16.6C419.6,448.8,406.6,463.6,406.6,463.6z"/>
<path class="st4" d="M353.3,446.8c0,0-4.9-18.2,3.3-16.6C366.3,432.1,353.3,446.8,353.3,446.8z"/>
<path class="st4" d="M383.2,484.5c0,0-4.9-18.2,3.3-16.6C396.2,469.8,383.2,484.5,383.2,484.5z"/>
<path class="st4" d="M360.6,473.2c0,0-4.9-18.2,3.3-16.6C373.6,458.4,360.6,473.2,360.6,473.2z"/>
<path class="st8" d="M308.1,580.9c0,0-46.8-21.7-33.8-47.1s83.5-36.4,114,3.2S313.9,647,308.1,580.9z"/>
<path class="st1" d="M278.3,577.8c0,0-20.8-17.3-10.9-24.5s30.8,19.8,30.8,19.8s-7.2-25.6,7.6-21.7s4.8,27.5,4.8,27.5
	s9.5-11.9,17.7-1.3S318,590,318,590s20.8,2.1,14.5,13s-21.3,12.9-31.7-2.8c0,0,0.3,18.9-11.5,6.5S278.3,577.8,278.3,577.8z"/>
<path class="st1" d="M280.8,588.5c-26.4,0-47.1-13.8-48.1-14.5c-1.1-0.8-1.3-2.3-0.5-3.3c0.7-1,2.1-1.3,3.2-0.6l0,0
	c0.3,0.2,28.4,18.9,59.7,12.2c1.3-0.3,2.5,0.5,2.8,1.8c0.3,1.3-0.5,2.5-1.8,2.8C291,587.9,285.9,588.5,280.8,588.5z"/>
<path class="st4" d="M343.2,555.4c0,0-13.7,12.9-16.2,4.9C324,550.9,343.2,555.4,343.2,555.4z"/>
<path class="st4" d="M310.1,537c0,0-13.7,12.9-16.2,4.9C291,532.5,310.1,537,310.1,537z"/>
<path class="st4" d="M346,529.8c0,0-13.7,12.9-16.2,4.9C326.8,525.3,346,529.8,346,529.8z"/>
<path class="st4" d="M356.4,584.8c0,0-13.7,12.9-16.2,4.9C337.3,580.2,356.4,584.8,356.4,584.8z"/>
<path class="st4" d="M375.5,540.5c0,0-13.7,12.9-16.2,4.9C356.4,536.1,375.5,540.5,375.5,540.5z"/>
<path class="st4" d="M376.2,565.8c0,0-13.7,12.9-16.2,4.9C357,561.3,376.2,565.8,376.2,565.8z"/>
<path class="st9" d="M224,692.5c0,0,33-27.2,59.8-10.3s61.2,57.4,53.4,63.3s-53.4,12.9-74.9-5.2S224,692.5,224,692.5z"/>
<path class="st1" d="M208.8,692.2c-0.1-0.1-0.1-0.3-0.1-0.4c-0.1-0.9,0.5-1.8,1.5-1.9c0,0,0,0,0,0c1.6-0.2,40.6-4.6,117.5,47.8
	c0.8,0.5,1,1.6,0.5,2.4c-0.5,0.8-1.6,1-2.4,0.5c0,0-0.1-0.1-0.1-0.1c-75.6-51.5-114.7-47.2-115.1-47.2
	C209.9,693.3,209.1,692.9,208.8,692.2z"/>
<path class="st1" d="M296.9,744.3L296.9,744.3l-10.8-28.4c-0.3-0.9,0.1-1.9,1-2.2c0.9-0.3,1.8,0.1,2.2,1l0,0l10.8,28.4
	c0.3,0.9-0.1,1.9-1,2.2S297.2,745.2,296.9,744.3L296.9,744.3L296.9,744.3z"/>
<path class="st1" d="M250.6,700.1c-0.3-0.7-0.1-1.4,0.5-1.9c9.6-8.3,32.3-5,33.3-4.9c0.9,0.1,1.6,1,1.4,1.9c-0.1,0.9-1,1.6-1.9,1.4
	c-0.2,0-22.1-3.2-30.5,4.1c-0.7,0.6-1.8,0.5-2.4-0.2C250.8,700.4,250.7,700.3,250.6,700.1L250.6,700.1z"/>
<path class="st9" d="M1341.3,970.2c0,0,38.3-19.1,60.5,3.5s46.6,69.8,37.7,73.8s-54.9,0.5-71.8-22S1341.3,970.2,1341.3,970.2z"/>
<path class="st1" d="M1326.6,966.5c0-0.1,0-0.3,0-0.4c0.1-0.9,0.9-1.6,1.9-1.5c1.6,0.2,40.6,4.7,103.6,73.1c0.6,0.7,0.6,1.8-0.1,2.4
	c-0.7,0.6-1.8,0.6-2.4-0.1c-61.9-67.3-101-72-101.4-72C1327.3,967.9,1326.7,967.2,1326.6,966.5z"/>
<path class="st1" d="M1400.6,1037.2L1400.6,1037.2l-4.1-30.1c-0.1-0.9,0.6-1.8,1.6-1.8c0.9-0.1,1.6,0.5,1.8,1.4l0,0l4.1,30.1
	c0.1,0.9-0.5,1.8-1.5,1.9C1401.6,1038.8,1400.7,1038.2,1400.6,1037.2L1400.6,1037.2L1400.6,1037.2z"/>
<path class="st1" d="M1365.5,983.6c-0.1-0.7,0.3-1.4,0.9-1.8c11.2-5.9,32.6,2.4,33.5,2.8c0.9,0.3,1.3,1.3,1,2.2
	c-0.3,0.9-1.3,1.3-2.2,1c-0.2-0.1-20.8-8.1-30.7-2.9c-0.8,0.4-1.9,0.1-2.3-0.7c0,0,0,0,0,0C1365.6,984,1365.5,983.8,1365.5,983.6z"
	/>
<path class="st9" d="M169.9,364.4c0,0,37.7-20.2,60.6,1.7s48.7,68.3,40,72.6s-54.9,2.1-72.5-19.8S169.9,364.4,169.9,364.4z"/>
<path class="st1" d="M155.1,361.1c0-0.1,0-0.3,0-0.4c0.1-0.9,0.9-1.6,1.8-1.6c1.6,0.1,40.7,3.5,105.8,69.9c0.7,0.7,0.7,1.8,0,2.4
	c-0.7,0.7-1.8,0.7-2.4,0c-64-65.3-103.2-68.9-103.6-68.9C155.9,362.5,155.3,361.9,155.1,361.1z"/>
<path class="st1" d="M231.3,429.6L231.3,429.6l-5-30c-0.1-0.9,0.5-1.8,1.4-2c0.9-0.1,1.8,0.5,1.9,1.4l0,0l5,30
	c0.2,0.9-0.5,1.8-1.4,2C232.3,431.1,231.4,430.5,231.3,429.6L231.3,429.6z"/>
<path class="st1" d="M194.5,377.1c-0.1-0.7,0.2-1.4,0.8-1.8c11-6.3,32.7,1.4,33.6,1.8c0.9,0.3,1.3,1.3,1,2.2c-0.3,0.9-1.3,1.3-2.2,1
	l0,0c-0.2-0.1-21.1-7.5-30.7-2c-0.8,0.5-1.9,0.2-2.3-0.7C194.6,377.5,194.5,377.3,194.5,377.1z"/>
<path class="st1" d="M1432.6,781.4c0-2.5,2-4.5,4.5-4.5c2.5,0,4.5,2,4.5,4.5c0,2.5-2,4.5-4.5,4.5c0,0,0,0,0,0
	C1434.6,785.9,1432.6,783.9,1432.6,781.4z"/>
<path class="st1" d="M1386.9,636.4c0-2.5,2-4.5,4.4-4.5s4.5,2,4.5,4.5c0,2.5-2,4.5-4.4,4.5c0,0,0,0,0,0
	C1388.9,640.8,1386.9,638.8,1386.9,636.4z"/>
<path class="st1" d="M1451.1,700.5c0-2.5,2-4.5,4.4-4.5s4.4,2,4.4,4.4c0,2.5-2,4.5-4.4,4.5l0,0C1453.1,705,1451.1,703,1451.1,700.5z
	"/>
<path class="st1" d="M1041.8,672.4c0-2.5,2-4.5,4.4-4.5c2.5,0,4.5,2,4.5,4.5c0,2.5-2,4.5-4.4,4.5c0,0,0,0,0,0
	C1043.8,676.8,1041.8,674.8,1041.8,672.4z"/>
<path class="st1" d="M742.1,722.1c7-6.5,11.1-6.2,13.7-3.5s2.6,6.9-4.4,13.4c-12.7,11.9-23.4,12.7-23.4,12.7
	S729.2,734.2,742.1,722.1z"/>
<path class="st1" d="M898.9,243.4c2.8,9.1,0.1,12.9-4.3,14.3s-8.8-0.2-11.7-9.3c-5.2-16.6,0.3-27.1,0.3-27.1
	S893.7,226.5,898.9,243.4z"/>
<path class="st1" d="M1256.9,92.6c9.5-0.2,12.4,2.8,12.5,6.5s-2.7,6.8-12.2,7c-17.4,0.4-25.9-6.2-25.9-6.2S1239.2,93,1256.9,92.6z"
	/>
<path class="st1" d="M303.2,808.7c-2.1,9.3-5.7,11.4-9.3,10.6s-6-4.3-3.9-13.6c3.8-16.9,12.3-23.6,12.3-23.6
	S307.1,791.5,303.2,808.7z"/>
<path class="st1" d="M445.6,542.1c-1-9.5,1.7-12.6,5.4-13s7,2.1,8.1,11.6c1.9,17.3-3.9,26.3-3.9,26.3S447.5,559.6,445.6,542.1z"/>
<path class="st1" d="M985.5,264.6c9.4-1.8,12.7,0.6,13.4,4.3s-1.5,7.2-10.9,9c-17,3.3-26.6-1.7-26.6-1.7S968.2,268,985.5,264.6z"/>
<circle class="st1" cx="732.8" cy="1162.9" r="4.4"/>
<circle class="st1" cx="582.8" cy="1035.2" r="4.4"/>
<path class="st1" d="M509.8,1128.8c0-2.5,2-4.5,4.5-4.5c2.5,0,4.5,2,4.5,4.5c0,2.5-2,4.5-4.5,4.5c0,0,0,0,0,0
	C511.7,1133.3,509.8,1131.3,509.8,1128.8z"/>
<path class="st1" d="M455.5,1218.1c0-2.5,2-4.5,4.5-4.5c2.5,0,4.5,2,4.5,4.5c0,2.5-2,4.5-4.5,4.5c0,0,0,0,0,0
	C457.4,1222.6,455.5,1220.6,455.5,1218.1z"/>
<path class="st1" d="M635.8,727.9c0-2.5,2-4.5,4.4-4.5c2.5,0,4.5,2,4.5,4.4c0,2.5-2,4.5-4.4,4.5c0,0,0,0,0,0
	C637.8,732.3,635.8,730.3,635.8,727.9z"/>
<path class="st1" d="M236.5,624.9c0-2.5,2-4.5,4.5-4.5c2.5,0,4.4,2,4.4,4.5c0,2.5-2,4.5-4.5,4.5l0,0
	C238.5,629.3,236.5,627.3,236.5,624.9z"/>
<path class="st1" d="M987.3,221.2c0-2.5,2-4.5,4.5-4.5c2.5,0,4.4,2,4.4,4.5c0,2.5-2,4.5-4.5,4.5l0,0
	C989.3,225.7,987.3,223.7,987.3,221.2z"/>
<path class="st1" d="M1158.8,56.8c0-2.5,2-4.5,4.5-4.5s4.5,2,4.5,4.5s-2,4.5-4.5,4.5c0,0,0,0,0,0
	C1160.8,61.3,1158.8,59.3,1158.8,56.8C1158.8,56.8,1158.8,56.8,1158.8,56.8z"/>
<path class="st1" d="M1200.4,155c0-2.5,2-4.5,4.4-4.5s4.5,2,4.5,4.4c0,2.5-2,4.5-4.4,4.5c0,0,0,0,0,0
	C1202.4,159.5,1200.4,157.5,1200.4,155z"/>
<path class="st1" d="M1290.2,602.6c0-2.5,2-4.4,4.5-4.4c2.5,0,4.4,2,4.4,4.5c0,2.5-2,4.4-4.4,4.4
	C1292.2,607.1,1290.2,605.1,1290.2,602.6C1290.2,602.6,1290.2,602.6,1290.2,602.6z"/>
<path class="st1" d="M385.7,662.8c0-2.5,2-4.5,4.5-4.5c2.5,0,4.4,2,4.4,4.5c0,2.5-2,4.5-4.5,4.5l0,0
	C387.7,667.2,385.7,665.2,385.7,662.8z"/>
<circle class="st1" cx="518.7" cy="554.3" r="4.5"/>
<path class="st1" d="M150.7,557.8c0-2.5,2-4.5,4.5-4.5c2.5,0,4.4,2,4.4,4.5c0,2.5-2,4.5-4.5,4.5l0,0
	C152.6,562.2,150.7,560.2,150.7,557.8z"/>
<path class="st1" d="M226,507.4c0-2.5,2-4.5,4.4-4.5c2.5,0,4.5,2,4.5,4.5c0,2.5-2,4.5-4.4,4.5c0,0,0,0,0,0
	C228,511.9,226,509.9,226,507.4z"/>
<path class="st1" d="M932.1,727.8c0-2.5,2-4.5,4.4-4.5s4.5,2,4.5,4.4s-2,4.5-4.4,4.5h0C934.1,732.2,932.1,730.2,932.1,727.8z"/>
<path class="st1" d="M330.4,777.6c0-2.5,2-4.5,4.5-4.5c2.5,0,4.5,2,4.5,4.5c0,2.5-2,4.5-4.5,4.5c0,0,0,0,0,0
	C332.4,782.1,330.4,780.1,330.4,777.6z"/>
<path class="st5" d="M639.2,842.2c-2.2,0-6.8-0.6-12.2-5c-7.2-5.9-9.7-21.6-9.8-22.3c-0.1-0.7,0.3-1.3,1-1.4c0.7-0.1,1.3,0.3,1.4,1
	c0,0.2,2.4,15.5,8.9,20.7s11.2,4.4,11.4,4.4c0.7-0.1,1.3,0.3,1.4,1c0.1,0.7-0.3,1.3-1,1.4C640.1,842.2,639.6,842.2,639.2,842.2z"/>
<path class="st5" d="M945.3,787.2c-2.8,0-5.6-0.2-8.3-0.6c-5.3-0.7-10.6-1.8-15.7-3.2c-0.7-0.1-1.1-0.8-1-1.5c0.1-0.7,0.8-1.1,1.5-1
	c0.1,0,0.1,0,0.2,0.1c8,2.3,29.7,6.9,34.6,0.4c0.4-0.5,1.2-0.7,1.7-0.3c0,0,0,0,0,0c0.5,0.4,0.7,1.2,0.2,1.8
	C956.3,785.8,951.9,787.2,945.3,787.2z"/>
<path class="st5" d="M1024.5,737.2c-9.6,0-22.2-8-22.8-8.4c-0.5-0.4-0.7-1.2-0.2-1.8c0.4-0.5,1-0.6,1.6-0.3c5,3.2,19.5,10.7,26,7
	c0.6-0.3,1.4-0.1,1.7,0.5c0.3,0.6,0.1,1.3-0.5,1.7C1028.4,736.8,1026.5,737.3,1024.5,737.2z"/>
<path class="st5" d="M1123.9,718.1c-0.1,0-0.2,0-0.3,0c-12-2.6-16.2-19.7-16.4-20.4c-0.2-0.7,0.1-1.4,0.8-1.6
	c0.7-0.2,1.4,0.1,1.6,0.8c0,0.1,0,0.1,0.1,0.2c0,0.2,4.1,16.3,14.5,18.6c0.7,0.2,1.1,0.8,0.9,1.5
	C1125,717.7,1124.5,718.1,1123.9,718.1L1123.9,718.1z"/>
<path class="st5" d="M575.2,672.2c-4.7,0-9.3-0.6-13.8-1.8c-0.7-0.2-1-0.9-0.8-1.6c0.2-0.7,0.9-1,1.6-0.8l0,0c0.1,0,13.1,3.8,24.9,0
	c0.6-0.2,1.4,0.1,1.6,0.8c0.2,0.6-0.1,1.4-0.8,1.6c0,0-0.1,0-0.1,0C583.7,671.6,579.5,672.2,575.2,672.2z"/>
</svg>
