<svg width="576" height="32" viewBox="0 0 576 32" fill="none" xmlns="http://www.w3.org/2000/svg">
<line x1="0.5" y1="15.5" x2="253.5" y2="15.5" stroke="#DDDFE6" stroke-linecap="round"/>
<path d="M284.412 23.2C283.759 23.2 283.139 23.0867 282.552 22.86C281.965 22.62 281.452 22.28 281.012 21.84C280.572 21.3867 280.219 20.84 279.952 20.2C279.699 19.5467 279.572 18.8 279.572 17.96C279.572 17.12 279.699 16.38 279.952 15.74C280.219 15.0867 280.572 14.54 281.012 14.1C281.452 13.66 281.965 13.3267 282.552 13.1C283.139 12.86 283.759 12.74 284.412 12.74C285.065 12.74 285.685 12.86 286.272 13.1C286.872 13.3267 287.392 13.66 287.832 14.1C288.285 14.54 288.645 15.0867 288.912 15.74C289.179 16.38 289.312 17.12 289.312 17.96C289.312 18.8 289.179 19.5467 288.912 20.2C288.645 20.84 288.285 21.3867 287.832 21.84C287.392 22.28 286.872 22.62 286.272 22.86C285.685 23.0867 285.065 23.2 284.412 23.2ZM284.412 21.94C284.812 21.94 285.199 21.8733 285.572 21.74C285.959 21.5933 286.299 21.36 286.592 21.04C286.885 20.72 287.119 20.3067 287.292 19.8C287.479 19.2933 287.572 18.68 287.572 17.96C287.572 17.24 287.479 16.6333 287.292 16.14C287.119 15.6333 286.885 15.22 286.592 14.9C286.299 14.58 285.959 14.3533 285.572 14.22C285.199 14.0733 284.812 14 284.412 14C284.012 14 283.625 14.0733 283.252 14.22C282.892 14.3533 282.565 14.58 282.272 14.9C281.979 15.22 281.745 15.6333 281.572 16.14C281.399 16.6333 281.312 17.24 281.312 17.96C281.312 18.68 281.399 19.2933 281.572 19.8C281.745 20.3067 281.979 20.72 282.272 21.04C282.565 21.36 282.892 21.5933 283.252 21.74C283.625 21.8733 284.012 21.94 284.412 21.94ZM296.539 14.54C296.192 14.5133 295.852 14.54 295.519 14.62C295.185 14.7 294.872 14.8267 294.579 15C294.299 15.1733 294.039 15.3867 293.799 15.64C293.572 15.8933 293.392 16.1733 293.259 16.48V23H291.559V12.94H293.059L293.219 15.12H293.259C293.392 14.8267 293.559 14.5467 293.759 14.28C293.972 14 294.212 13.76 294.479 13.56C294.759 13.3467 295.065 13.1733 295.399 13.04C295.745 12.9067 296.125 12.84 296.539 12.84V14.54Z" fill="#333333"/>
<line x1="322.5" y1="15.5" x2="575.5" y2="15.5" stroke="#DDDFE6" stroke-linecap="round"/>
</svg>
