<svg width="25" height="24" viewBox="0 0 25 24" fill="none" xmlns="http://www.w3.org/2000/svg">
<g clip-path="url(#clip0_12_30)">
<path d="M6.08661 7.72103H1.26857C1.05473 7.72103 0.88147 7.89438 0.88147 8.10813V23.5864C0.88147 23.8003 1.05473 23.9735 1.26857 23.9735H6.08661C6.30044 23.9735 6.4737 23.8003 6.4737 23.5864V8.10813C6.4737 7.89438 6.30044 7.72103 6.08661 7.72103Z" fill="#29524A"/>
<path d="M3.6793 0.0264006C1.92622 0.0264006 0.5 1.45107 0.5 3.20222C0.5 4.95414 1.92622 6.37935 3.6793 6.37935C5.43099 6.37935 6.85605 4.95406 6.85605 3.20222C6.85613 1.45107 5.43099 0.0264006 3.6793 0.0264006Z" fill="#29524A"/>
<path d="M18.3416 7.33634C16.4065 7.33634 14.976 8.16821 14.1084 9.11342V8.10813C14.1084 7.89437 13.9351 7.72103 13.7213 7.72103H9.10719C8.89336 7.72103 8.72009 7.89437 8.72009 8.10813V23.5864C8.72009 23.8003 8.89336 23.9735 9.10719 23.9735H13.9147C14.1285 23.9735 14.3018 23.8003 14.3018 23.5864V15.9283C14.3018 13.3476 15.0028 12.3423 16.8017 12.3423C18.7608 12.3423 18.9165 13.954 18.9165 16.061V23.5865C18.9165 23.8003 19.0898 23.9736 19.3036 23.9736H24.1129C24.3268 23.9736 24.5 23.8003 24.5 23.5865V15.0964C24.5 11.2591 23.7683 7.33634 18.3416 7.33634Z" fill="#29524A"/>
</g>
<defs>
<clipPath id="clip0_12_30">
<rect width="24" height="24" fill="white" transform="translate(0.5)"/>
</clipPath>
</defs>
</svg>
